# xmcd
#
# Track frame offsets:
# 150
# 24598
# 42563
# 62668
# 87030
# 100953
# 123395
# 140320
# 156733
# 176093
#
# Disc length: 2709 seconds
#
#
# Revision: 0
# Processed by: cddbd v1.5PL3 Copyright (c) Steve Scherf et al.
# Submitted via: FreeRIP 2.53 
#
DISCID=890a930a
DTITLE=Greg Harris - Greg Harris
DYEAR=1997
DGENRE=Country
TTITLE0=Into the night
TTITLE1=Determined to fly
TTITLE2=Line in the water
TTITLE3=Doug's tune
TTITLE4=12 string love
TTITLE5=somethin's got a hold of my heart
TTITLE6=Total recall
TTITLE7=valley way
TTITLE8=Slips right through your fingers
TTITLE9=Dewey's reel
EXTD=
EXTT0=
EXTT1=
EXTT2=
EXTT3=
EXTT4=
EXTT5=
EXTT6=
EXTT7=
EXTT8=
EXTT9=
PLAYORDER=
